<svg width="19" height="19" viewBox="0 0 19 19" fill="none" xmlns="http://www.w3.org/2000/svg">
<path d="M14.2695 4.00001H18.8529V5.83334H17.0195V17.75C17.0195 18.0067 16.9309 18.2236 16.7537 18.4008C16.5765 18.5781 16.3595 18.6667 16.1029 18.6667H3.26953C3.01286 18.6667 2.79592 18.5781 2.6187 18.4008C2.44148 18.2236 2.35286 18.0067 2.35286 17.75V5.83334H0.519531V4.00001H5.10286V1.25001C5.10286 0.99334 5.19148 0.776394 5.3687 0.599173C5.54592 0.421949 5.76286 0.33334 6.01953 0.33334H13.3529C13.6095 0.33334 13.8265 0.421949 14.0037 0.599173C14.1809 0.776394 14.2695 0.99334 14.2695 1.25001V4.00001ZM15.1862 5.83334H4.1862V16.8333H15.1862V5.83334ZM6.9362 8.58334H8.76953V14.0833H6.9362V8.58334ZM10.6029 8.58334H12.4362V14.0833H10.6029V8.58334ZM6.9362 2.16667V4.00001H12.4362V2.16667H6.9362Z" fill="#555555"/>
</svg>
