<svg width="374" height="93" viewBox="0 0 374 93" fill="none" xmlns="http://www.w3.org/2000/svg">
<rect x="39.502" y="46.6028" width="14.3453" height="67.9802" rx="7.17267" transform="rotate(-50.0989 39.502 46.6028)" fill="#D9D9D9"/>
<path d="M49.1479 0C74.3888 0.000129882 94.8511 20.4622 94.8511 45.7031C94.8509 70.9439 74.3888 91.4061 49.1479 91.4062C23.907 91.4062 3.44495 70.944 3.44482 45.7031C3.44482 20.4621 23.9069 0 49.1479 0ZM49.1479 14.2393C31.771 14.2393 17.6841 28.3262 17.6841 45.7031C17.6842 63.08 31.771 77.167 49.1479 77.167C66.5247 77.1668 80.6117 63.0799 80.6118 45.7031C80.6118 28.3263 66.5248 14.2394 49.1479 14.2393Z" fill="#26B203"/>
<rect x="49.1729" y="35.3682" width="14.3453" height="67.9802" rx="7.17267" transform="rotate(46.3311 49.1729 35.3682)" fill="#D9D9D9"/>
<circle cx="49.1478" cy="28.9376" r="6.66022" fill="#D9D9D9"/>
<path d="M127.077 80V29.8182H133.153V52.1648H159.911V29.8182H165.987V80H159.911V57.5554H133.153V80H127.077ZM177.369 80V42.3636H183.151V80H177.369ZM180.309 36.0909C179.182 36.0909 178.21 35.707 177.393 34.9393C176.593 34.1715 176.193 33.2486 176.193 32.1705C176.193 31.0923 176.593 30.1694 177.393 29.4016C178.21 28.6339 179.182 28.25 180.309 28.25C181.436 28.25 182.4 28.6339 183.2 29.4016C184.017 30.1694 184.426 31.0923 184.426 32.1705C184.426 33.2486 184.017 34.1715 183.2 34.9393C182.4 35.707 181.436 36.0909 180.309 36.0909ZM199.525 29.8182V80H193.743V29.8182H199.525ZM215.9 29.8182V80H210.117V29.8182H215.9ZM287.062 45.5H280.985C280.626 43.7521 279.997 42.2166 279.098 40.8935C278.216 39.5703 277.138 38.4595 275.864 37.5611C274.606 36.6463 273.21 35.9602 271.674 35.5028C270.139 35.0455 268.538 34.8168 266.872 34.8168C263.833 34.8168 261.081 35.5845 258.614 37.12C256.164 38.6555 254.212 40.918 252.758 43.9073C251.32 46.8967 250.602 50.5639 250.602 54.9091C250.602 59.2543 251.32 62.9215 252.758 65.9109C254.212 68.9002 256.164 71.1626 258.614 72.6982C261.081 74.2337 263.833 75.0014 266.872 75.0014C268.538 75.0014 270.139 74.7727 271.674 74.3153C273.21 73.858 274.606 73.18 275.864 72.2816C277.138 71.3668 278.216 70.2479 279.098 68.9247C279.997 67.5852 280.626 66.0497 280.985 64.3182H287.062C286.604 66.8828 285.771 69.1779 284.563 71.2035C283.354 73.229 281.851 74.9524 280.054 76.3736C278.257 77.7784 276.24 78.8484 274.002 79.5835C271.78 80.3185 269.403 80.6861 266.872 80.6861C262.592 80.6861 258.786 79.6406 255.453 77.5497C252.121 75.4588 249.499 72.4858 247.588 68.6307C245.677 64.7756 244.721 60.2017 244.721 54.9091C244.721 49.6165 245.677 45.0426 247.588 41.1875C249.499 37.3324 252.121 34.3594 255.453 32.2685C258.786 30.1776 262.592 29.1321 266.872 29.1321C269.403 29.1321 271.78 29.4996 274.002 30.2347C276.24 30.9698 278.257 32.0479 280.054 33.4691C281.851 34.8739 283.354 36.5891 284.563 38.6147C285.771 40.6239 286.604 42.919 287.062 45.5ZM307.173 80.8821C304.788 80.8821 302.623 80.4329 300.679 79.5344C298.735 78.6197 297.192 77.3047 296.048 75.5895C294.905 73.858 294.333 71.767 294.333 69.3168C294.333 67.1605 294.758 65.4126 295.607 64.0732C296.457 62.7173 297.592 61.6555 299.013 60.8878C300.434 60.12 302.002 59.5483 303.718 59.1726C305.449 58.7805 307.189 58.4702 308.937 58.2415C311.224 57.9474 313.078 57.7269 314.499 57.5799C315.936 57.4165 316.982 57.147 317.635 56.7713C318.305 56.3956 318.64 55.7422 318.64 54.8111V54.6151C318.64 52.1974 317.978 50.3189 316.655 48.9794C315.348 47.6399 313.364 46.9702 310.701 46.9702C307.94 46.9702 305.776 47.5746 304.208 48.7834C302.64 49.9922 301.537 51.2827 300.9 52.6548L295.411 50.6946C296.391 48.4077 297.698 46.6271 299.332 45.353C300.982 44.0625 302.778 43.1641 304.722 42.6577C306.683 42.1349 308.61 41.8736 310.505 41.8736C311.714 41.8736 313.102 42.0206 314.67 42.3146C316.255 42.5923 317.782 43.1722 319.252 44.0543C320.739 44.9364 321.972 46.2678 322.952 48.0483C323.933 49.8288 324.423 52.2138 324.423 55.2031V80H318.64V74.9034H318.346C317.954 75.7202 317.3 76.5941 316.386 77.5252C315.471 78.4563 314.254 79.2486 312.735 79.902C311.216 80.5554 309.362 80.8821 307.173 80.8821ZM308.055 75.6875C310.342 75.6875 312.269 75.2383 313.837 74.3398C315.422 73.4414 316.614 72.2816 317.415 70.8604C318.232 69.4393 318.64 67.9446 318.64 66.3764V61.0838C318.395 61.3778 317.856 61.6474 317.023 61.8924C316.206 62.1211 315.259 62.3253 314.18 62.505C313.119 62.6683 312.081 62.8153 311.069 62.946C310.072 63.0604 309.263 63.1584 308.643 63.2401C307.14 63.4361 305.735 63.7546 304.428 64.1957C303.138 64.6204 302.092 65.2656 301.292 66.1314C300.508 66.9808 300.116 68.1406 300.116 69.6108C300.116 71.62 300.859 73.1392 302.346 74.1683C303.848 75.1811 305.751 75.6875 308.055 75.6875ZM335.761 80V29.8182H341.544V48.3423H342.034C342.459 47.6889 343.047 46.8558 343.798 45.843C344.566 44.8139 345.66 43.8991 347.082 43.0987C348.519 42.282 350.463 41.8736 352.913 41.8736C356.082 41.8736 358.876 42.6658 361.293 44.2504C363.711 45.8349 365.598 48.081 366.953 50.9886C368.309 53.8963 368.987 57.3267 368.987 61.2798C368.987 65.2656 368.309 68.7205 366.953 71.6445C365.598 74.5522 363.719 76.8065 361.318 78.4073C358.916 79.9918 356.148 80.7841 353.011 80.7841C350.594 80.7841 348.658 80.3839 347.204 79.5835C345.75 78.7667 344.631 77.8437 343.847 76.8146C343.063 75.7692 342.459 74.9034 342.034 74.2173H341.348V80H335.761ZM341.446 61.1818C341.446 64.0241 341.862 66.5316 342.696 68.7042C343.529 70.8604 344.746 72.5511 346.347 73.7763C347.947 74.9851 349.908 75.5895 352.227 75.5895C354.645 75.5895 356.662 74.9524 358.279 73.6783C359.913 72.3878 361.138 70.6562 361.955 68.4837C362.788 66.2947 363.204 63.8608 363.204 61.1818C363.204 58.5355 362.796 56.1506 361.979 54.027C361.179 51.8871 359.962 50.1964 358.328 48.9549C356.711 47.6971 354.677 47.0682 352.227 47.0682C349.875 47.0682 347.898 47.6644 346.297 48.8569C344.697 50.033 343.488 51.6829 342.671 53.8065C341.854 55.9137 341.446 58.3722 341.446 61.1818Z" fill="white"/>
</svg>
