<svg width="31" height="30" viewBox="0 0 31 30" fill="none" xmlns="http://www.w3.org/2000/svg">
<g clip-path="url(#clip0_280_131)">
<path d="M26.5346 6.18716C25.9013 5.56112 25.1494 5.06451 24.3218 4.72568C23.4943 4.38686 22.6072 4.21246 21.7114 4.21246C20.8156 4.21246 19.9286 4.38686 19.101 4.72568C18.2734 5.06451 17.5215 5.56112 16.8882 6.18716L15.574 7.4858L14.2597 6.18716C12.9805 4.9232 11.2455 4.21312 9.43649 4.21312C7.62744 4.21312 5.89249 4.9232 4.61331 6.18716C3.33412 7.45112 2.61548 9.16541 2.61548 10.9529C2.61548 12.7404 3.33412 14.4547 4.61331 15.7187L15.574 26.5488L26.5346 15.7187C27.1682 15.0929 27.6708 14.35 28.0137 13.5323C28.3566 12.7145 28.5331 11.8381 28.5331 10.9529C28.5331 10.0678 28.3566 9.19131 28.0137 8.37358C27.6708 7.55586 27.1682 6.8129 26.5346 6.18716Z" stroke="#A0A29D" stroke-width="3" stroke-linecap="round" stroke-linejoin="round"/>
</g>
<defs>
<clipPath id="clip0_280_131">
<rect width="29.7574" height="29.4031" fill="white" transform="translate(0.695312 0.539307)"/>
</clipPath>
</defs>
</svg>
