<svg width="173" height="40" viewBox="0 0 173 40" fill="none" xmlns="http://www.w3.org/2000/svg">
<rect x="16.9563" y="20.0043" width="6.15774" height="29.1805" rx="3.07887" transform="rotate(-50.0989 16.9563 20.0043)" fill="#000"/>
<path d="M21.0967 0C31.9313 0.000102049 40.7148 8.78352 40.7148 19.6182C40.7147 30.4527 31.9312 39.2362 21.0967 39.2363C10.262 39.2363 1.47862 30.4528 1.47852 19.6182C1.47852 8.78346 10.262 0 21.0967 0ZM21.0967 6.1123C13.6376 6.1123 7.59082 12.1591 7.59082 19.6182C7.59093 27.0771 13.6377 33.124 21.0967 33.124C28.5557 33.124 34.6024 27.0771 34.6025 19.6182C34.6025 12.1591 28.5557 6.11234 21.0967 6.1123Z" fill="#26B203"/>
<rect x="21.1074" y="15.1818" width="6.15774" height="29.1805" rx="3.07887" transform="rotate(46.3311 21.1074 15.1818)" fill="#000"/>
<circle cx="21.0965" cy="12.4214" r="2.8589" fill="#000"/>
<path d="M155.432 33.7115V7.80951H158.417V17.371H158.67C158.889 17.0337 159.193 16.6037 159.581 16.081C159.977 15.5498 160.542 15.0776 161.275 14.6644C162.017 14.2429 163.021 14.0321 164.285 14.0321C165.921 14.0321 167.363 14.441 168.611 15.2589C169.859 16.0767 170.833 17.2361 171.532 18.7369C172.232 20.2378 172.582 22.0084 172.582 24.0489C172.582 26.1062 172.232 27.8895 171.532 29.3987C170.833 30.8996 169.863 32.0631 168.623 32.8894C167.384 33.7073 165.955 34.1162 164.336 34.1162C163.088 34.1162 162.089 33.9097 161.338 33.4965C160.588 33.0749 160.011 32.5986 159.606 32.0674C159.201 31.5277 158.889 31.0809 158.67 30.7267H158.316V33.7115H155.432ZM158.366 23.9983C158.366 25.4654 158.581 26.7596 159.011 27.881C159.441 28.994 160.07 29.8667 160.896 30.4991C161.722 31.123 162.734 31.435 163.931 31.435C165.179 31.435 166.22 31.1061 167.055 30.4485C167.898 29.7824 168.531 28.8886 168.952 27.7672C169.382 26.6374 169.597 25.3811 169.597 23.9983C169.597 22.6323 169.387 21.4013 168.965 20.3052C168.552 19.2007 167.924 18.328 167.08 17.6872C166.246 17.0379 165.196 16.7133 163.931 16.7133C162.717 16.7133 161.697 17.0211 160.871 17.6366C160.044 18.2437 159.42 19.0953 158.999 20.1914C158.577 21.2791 158.366 22.548 158.366 23.9983Z" fill="black"/>
<path d="M140.675 34.1669C139.444 34.1669 138.327 33.9351 137.324 33.4713C136.32 32.9992 135.523 32.3204 134.933 31.4351C134.343 30.5413 134.048 29.4621 134.048 28.1973C134.048 27.0844 134.267 26.1822 134.706 25.4908C135.144 24.7909 135.73 24.2429 136.464 23.8466C137.197 23.4503 138.007 23.1552 138.892 22.9613C139.786 22.7589 140.684 22.5987 141.586 22.4807C142.766 22.3289 143.723 22.2151 144.457 22.1392C145.199 22.0549 145.738 21.9158 146.076 21.7218C146.421 21.5279 146.594 21.1906 146.594 20.71V20.6088C146.594 19.361 146.253 18.3913 145.57 17.6999C144.895 17.0085 143.871 16.6628 142.496 16.6628C141.071 16.6628 139.954 16.9748 139.145 17.5988C138.335 18.2227 137.766 18.8888 137.437 19.5971L134.604 18.5853C135.11 17.4048 135.785 16.4858 136.628 15.8281C137.48 15.162 138.407 14.6983 139.41 14.4369C140.422 14.1671 141.417 14.0322 142.395 14.0322C143.019 14.0322 143.736 14.108 144.545 14.2598C145.363 14.4032 146.151 14.7025 146.91 15.1578C147.678 15.6131 148.314 16.3003 148.82 17.2193C149.326 18.1384 149.579 19.3694 149.579 20.9124V33.7116H146.594V31.081H146.442C146.24 31.5025 145.903 31.9536 145.431 32.4342C144.958 32.9148 144.33 33.3238 143.546 33.661C142.762 33.9983 141.805 34.1669 140.675 34.1669ZM141.13 31.4857C142.311 31.4857 143.306 31.2538 144.115 30.7901C144.933 30.3263 145.549 29.7277 145.962 28.9941C146.383 28.2606 146.594 27.4891 146.594 26.6796V23.9478C146.468 24.0996 146.189 24.2387 145.759 24.3651C145.338 24.4832 144.849 24.5886 144.292 24.6813C143.744 24.7657 143.209 24.8415 142.686 24.909C142.172 24.968 141.754 25.0186 141.434 25.0608C140.658 25.1619 139.933 25.3264 139.259 25.554C138.593 25.7732 138.053 26.1063 137.64 26.5532C137.235 26.9916 137.033 27.5903 137.033 28.3491C137.033 29.3862 137.416 30.1703 138.184 30.7015C138.959 31.2243 139.942 31.4857 141.13 31.4857Z" fill="black"/>
<path d="M130.295 15.9039H127.159C126.973 15.0017 126.649 14.2092 126.185 13.5262C125.73 12.8432 125.173 12.2699 124.515 11.8061C123.866 11.334 123.145 10.9798 122.353 10.7438C121.56 10.5077 120.734 10.3896 119.874 10.3896C118.305 10.3896 116.885 10.7859 115.612 11.5785C114.347 12.3711 113.339 13.5388 112.589 15.0818C111.847 16.6248 111.476 18.5177 111.476 20.7606C111.476 23.0034 111.847 24.8963 112.589 26.4393C113.339 27.9823 114.347 29.15 115.612 29.9426C116.885 30.7352 118.305 31.1315 119.874 31.1315C120.734 31.1315 121.56 31.0134 122.353 30.7773C123.145 30.5413 123.866 30.1913 124.515 29.7276C125.173 29.2554 125.73 28.6779 126.185 27.9949C126.649 27.3035 126.973 26.5109 127.159 25.6172H130.295C130.059 26.941 129.629 28.1256 129.005 29.1711C128.381 30.2166 127.606 31.1062 126.678 31.8397C125.751 32.5649 124.709 33.1171 123.554 33.4966C122.407 33.876 121.181 34.0657 119.874 34.0657C117.665 34.0657 115.7 33.5261 113.98 32.4468C112.26 31.3676 110.907 29.833 109.92 27.8431C108.934 25.8533 108.44 23.4924 108.44 20.7606C108.44 18.0287 108.934 15.6678 109.92 13.678C110.907 11.6881 112.26 10.1535 113.98 9.07429C115.7 7.99504 117.665 7.45541 119.874 7.45541C121.181 7.45541 122.407 7.64513 123.554 8.02455C124.709 8.40397 125.751 8.96046 126.678 9.69402C127.606 10.4191 128.381 11.3045 129.005 12.35C129.629 13.3871 130.059 14.5717 130.295 15.9039Z" fill="black"/>
<path d="M93.5641 7.80951V33.7115H90.5793V7.80951H93.5641Z" fill="black"/>
<path d="M85.112 7.80951V33.7115H82.1272V7.80951H85.112Z" fill="black"/>
<path d="M73.6754 33.7115V14.285H76.6602V33.7115H73.6754ZM75.1931 11.0472C74.6113 11.0472 74.1097 10.8491 73.6881 10.4528C73.2749 10.0565 73.0684 9.58011 73.0684 9.02363C73.0684 8.46714 73.2749 7.99075 73.6881 7.59446C74.1097 7.19817 74.6113 7.00003 75.1931 7.00003C75.7749 7.00003 76.2724 7.19817 76.6855 7.59446C77.1071 7.99075 77.3179 8.46714 77.3179 9.02363C77.3179 9.58011 77.1071 10.0565 76.6855 10.4528C76.2724 10.8491 75.7749 11.0472 75.1931 11.0472Z" fill="black"/>
<path d="M47.7168 33.7115V7.80951H50.8534V19.344H64.6644V7.80951H67.801V33.7115H64.6644V22.1264H50.8534V33.7115H47.7168Z" fill="black"/>
</svg>
