<svg width="68" height="68" viewBox="0 0 68 68" fill="none" xmlns="http://www.w3.org/2000/svg">
<g clip-path="url(#clip0_254_89)">
<path d="M33.9999 66.912C32.8983 66.9214 31.8156 66.6255 30.8719 66.0571L19.0788 59.16C14.6638 56.6909 10.9789 53.1001 8.39648 48.7505C5.81402 44.401 4.42553 39.4467 4.37134 34.3886V15.5429C4.37186 14.2729 4.76128 13.0336 5.48722 11.9915C6.21316 10.9495 7.2408 10.1548 8.43191 9.71428L31.8628 1.10743C33.2428 0.602273 34.7571 0.602273 36.1371 1.10743L59.5679 9.71428C60.759 10.1548 61.7867 10.9495 62.5126 11.9915C63.2385 13.0336 63.628 14.2729 63.6285 15.5429V34.3886C63.5743 39.4467 62.1858 44.401 59.6033 48.7505C57.0209 53.1001 53.336 56.6909 48.9211 59.16L37.1279 66.0571C36.1842 66.6255 35.1015 66.9214 33.9999 66.912ZM33.9999 5.59543C33.8457 5.56736 33.6878 5.56736 33.5336 5.59543L10.1028 14.2411C9.83884 14.3389 9.61237 14.5172 9.45545 14.7508C9.29853 14.9845 9.21912 15.2616 9.22848 15.5429V34.3886C9.28482 38.5973 10.4518 42.7166 12.6114 46.3295C14.7709 49.9424 17.8465 52.9208 21.5268 54.9634L33.3199 61.88C33.5285 61.9939 33.7623 62.0536 33.9999 62.0536C34.2375 62.0536 34.4714 61.9939 34.6799 61.88L46.4731 54.9634C50.1534 52.9208 53.2289 49.9424 55.3885 46.3295C57.548 42.7166 58.715 38.5973 58.7713 34.3886V15.5429C58.7726 15.2681 58.6894 14.9997 58.533 14.7738C58.3766 14.5479 58.1546 14.3756 57.8971 14.28L34.4662 5.67314C34.3168 5.61899 34.1588 5.59266 33.9999 5.59543Z" fill="#8EA7AC"/>
<path d="M31.8629 43.4229C31.2896 43.4191 30.7346 43.2204 30.2892 42.8594L21.9932 35.8651C21.4985 35.4503 21.1889 34.856 21.1324 34.2129C21.0759 33.5699 21.2772 32.9307 21.692 32.436C22.1068 31.9413 22.7011 31.6317 23.3442 31.5752C23.9873 31.5188 24.6265 31.7201 25.1212 32.1349L31.6297 37.6137L42.7429 25.3737C43.1757 24.8945 43.7812 24.6069 44.4261 24.5741C45.071 24.5413 45.7025 24.766 46.1817 25.1989C46.6609 25.6317 46.9486 26.2372 46.9814 26.8821C47.0142 27.527 46.7894 28.1585 46.3566 28.6377L33.7669 42.6263C33.5258 42.8887 33.2308 43.0957 32.9022 43.2332C32.5735 43.3707 32.2189 43.4354 31.8629 43.4229Z" fill="#8EA7AC"/>
</g>
<defs>
<clipPath id="clip0_254_89">
<rect width="68" height="68" fill="white"/>
</clipPath>
</defs>
</svg>
