<svg width="68" height="68" viewBox="0 0 68 68" fill="none" xmlns="http://www.w3.org/2000/svg">
<path d="M66.3 44.2H64.6V32.7144C64.6 31.365 64.0581 30.0688 63.1019 29.1125L52.4875 18.4981C51.5312 17.5419 50.235 17 48.8856 17H44.2V11.9C44.2 9.08438 41.9156 6.8 39.1 6.8H11.9C9.08438 6.8 6.8 9.08438 6.8 11.9V17H0.85C0.3825 17 0 17.3825 0 17.85V19.55C0 20.0175 0.3825 20.4 0.85 20.4H29.75C30.2175 20.4 30.6 20.7825 30.6 21.25V22.95C30.6 23.4175 30.2175 23.8 29.75 23.8H4.25C3.7825 23.8 3.4 24.1825 3.4 24.65V26.35C3.4 26.8175 3.7825 27.2 4.25 27.2H26.35C26.8175 27.2 27.2 27.5825 27.2 28.05V29.75C27.2 30.2175 26.8175 30.6 26.35 30.6H0.85C0.3825 30.6 0 30.9825 0 31.45V33.15C0 33.6175 0.3825 34 0.85 34H22.95C23.4175 34 23.8 34.3825 23.8 34.85V36.55C23.8 37.0175 23.4175 37.4 22.95 37.4H6.8V51C6.8 56.6313 11.3688 61.2 17 61.2C22.6313 61.2 27.2 56.6313 27.2 51H40.8C40.8 56.6313 45.3688 61.2 51 61.2C56.6313 61.2 61.2 56.6313 61.2 51H66.3C67.235 51 68 50.235 68 49.3V45.9C68 44.965 67.235 44.2 66.3 44.2ZM17 56.1C14.1844 56.1 11.9 53.8156 11.9 51C11.9 48.1844 14.1844 45.9 17 45.9C19.8156 45.9 22.1 48.1844 22.1 51C22.1 53.8156 19.8156 56.1 17 56.1ZM51 56.1C48.1844 56.1 45.9 53.8156 45.9 51C45.9 48.1844 48.1844 45.9 51 45.9C53.8156 45.9 56.1 48.1844 56.1 51C56.1 53.8156 53.8156 56.1 51 56.1ZM59.5 34H44.2V22.1H48.8856L59.5 32.7144V34Z" fill="#527075"/>
</svg>
