<svg width="50" height="50" viewBox="0 0 50 50" fill="none" xmlns="http://www.w3.org/2000/svg">
<path d="M44.9752 43.3347L42.098 10.9087C42.0462 10.267 41.508 9.78058 40.856 9.78058H34.791C34.7806 4.38833 30.3923 0 25.0001 0C19.6078 0 15.2195 4.38833 15.2091 9.78058H9.14413C8.50244 9.78058 7.96425 10.267 7.90215 10.9087L5.0249 43.3347C5.0249 43.3761 5.0249 43.4072 5.0249 43.4486C5.0249 47.0606 8.3472 50 12.425 50H37.5751C41.6529 50 44.9752 47.0606 44.9752 43.4486C44.9752 43.4072 44.9752 43.3761 44.9752 43.3347ZM25.0001 2.48396C29.0261 2.48396 32.2967 5.7545 32.307 9.78058H17.6931C17.7034 5.7545 20.974 2.48396 25.0001 2.48396ZM37.5751 47.5057H12.425C9.73407 47.5057 7.53991 45.7152 7.50886 43.49L10.2826 12.2645H15.2091V16.6218C15.2091 17.3049 15.768 17.8638 16.4511 17.8638C17.1342 17.8638 17.6931 17.3049 17.6931 16.6218V12.2645H32.307V16.6218C32.307 17.3049 32.8659 17.8638 33.549 17.8638C34.2321 17.8638 34.791 17.3049 34.791 16.6218V12.2645H39.7175L42.4913 43.5003C42.4602 45.7152 40.2661 47.5057 37.5751 47.5057Z" fill="black"/>
</svg>
