<svg width="89" height="14" viewBox="0 0 89 14" fill="none" xmlns="http://www.w3.org/2000/svg">
<path d="M6.66167 11.025L2.54333 13.335L3.465 8.70333L0 5.50667L4.69 4.94667L6.66167 0.665001L8.63333 4.94667L13.3233 5.50667L9.85833 8.70333L10.78 13.335L6.66167 11.025Z" fill="#F4A263"/>
<path d="M25.5217 11.025L21.4033 13.335L22.325 8.70333L18.86 5.50667L23.55 4.94667L25.5217 0.665001L27.4933 4.94667L32.1833 5.50667L28.7183 8.70333L29.64 13.335L25.5217 11.025Z" fill="#F4A263"/>
<path d="M44.3817 11.025L40.2633 13.335L41.185 8.70333L37.72 5.50667L42.41 4.94667L44.3817 0.665001L46.3533 4.94667L51.0433 5.50667L47.5783 8.70333L48.5 13.335L44.3817 11.025Z" fill="#F4A263"/>
<path d="M63.2417 11.025L59.1233 13.335L60.045 8.70333L56.58 5.50667L61.27 4.94667L63.2417 0.665001L65.2133 4.94667L69.9033 5.50667L66.4383 8.70333L67.36 13.335L63.2417 11.025Z" fill="#F4A263"/>
<path d="M82.1017 11.025L77.9833 13.335L78.905 8.70333L75.44 5.50667L80.13 4.94667L82.1017 0.665001L84.0733 4.94667L88.7633 5.50667L85.2983 8.70333L86.22 13.335L82.1017 11.025ZM82.1017 9.695L84.575 11.0833L84.0267 8.295L86.115 6.37L83.2917 6.03167L82.1017 3.45333L80.9117 6.03167L78.0883 6.37L80.1767 8.295L79.6283 11.0833L82.1017 9.695Z" fill="#F4A263"/>
</svg>
